<svg width="3042" height="757" viewBox="0 0 3042 757" fill="none" xmlns="http://www.w3.org/2000/svg">
<g clip-path="url(#clip0_1_9)">
<path d="M-0.000976562 269.034C-0.000976562 120.45 120.448 0.000427246 269.032 0.000427246C417.616 0.000427246 538.066 120.45 538.066 269.034C538.066 417.618 417.612 538.069 269.032 538.069C120.452 538.069 -0.000976562 417.62 -0.000976562 269.034ZM52.8047 269.034C52.8047 388.456 149.613 485.262 269.033 485.262C388.453 485.262 485.262 388.456 485.262 269.034C485.262 149.612 388.45 52.8051 269.033 52.8051C149.616 52.8051 52.8047 149.614 52.8047 269.034ZM273.953 387.207C265.808 370.891 211.328 269.155 211.328 269.155H430.691C430.691 269.155 372.618 373.037 365.879 387.207C359.14 401.377 348.249 426.957 321.699 426.957C295.149 426.957 282.098 403.53 273.953 387.207ZM130.633 330.645C122.983 310.379 109.324 269.157 109.324 269.157C109.324 269.157 121.878 236.433 132.913 207.666C142.345 185.561 150.778 175.057 158.856 175.039C177.956 174.998 182.365 187.4 190.015 207.666C197.665 227.932 211.324 269.157 211.324 269.157C211.324 269.157 198.775 301.884 187.74 330.645C178.308 352.75 169.874 363.256 161.796 363.278H161.714C142.687 363.277 138.277 350.885 130.634 330.643L130.633 330.645ZM356.814 269.157H211.329C211.329 269.157 269.403 165.272 276.141 151.102C282.879 136.932 293.772 111.354 320.322 111.354C346.872 111.354 359.922 134.782 368.068 151.102C376.214 167.422 430.693 269.157 430.693 269.157H356.814Z" fill="#4EE59A"/>
<path d="M701.874 443.542L830.599 111.042H882.849L1010.62 443.542H955.999L879.999 243.092C879.049 240.875 877.228 235.492 874.537 226.942C871.846 218.392 868.758 208.892 865.274 198.442C861.791 187.992 858.624 178.413 855.774 169.704C852.924 160.995 851.024 155.375 850.074 152.842L860.999 152.367C859.099 157.75 856.803 164.559 854.112 172.792C851.421 181.025 848.571 189.734 845.562 198.917C842.553 208.1 839.624 216.729 836.774 224.804L829.649 244.992L754.124 443.542H701.874ZM758.874 360.892L777.874 311.492H928.924L950.774 360.892H758.874ZM1055.75 443.542V194.167H1105.15V247.367L1096.12 253.067C1098.81 244.531 1102.9 236.504 1108.24 229.317C1113.94 221.556 1120.83 214.743 1128.66 209.13C1136.69 203.295 1145.48 198.58 1154.79 195.117C1163.97 191.662 1173.71 189.892 1183.52 189.892C1197.77 189.892 1210.28 192.267 1221.05 197.017C1231.66 201.644 1240.85 209.024 1247.65 218.392C1254.62 227.892 1259.68 239.767 1262.85 254.017L1255.25 252.117L1258.57 244.042C1262.28 236.434 1267.17 229.461 1273.06 223.38C1279.38 216.769 1286.48 210.947 1294.2 206.042C1302.04 201.01 1310.5 197.019 1319.37 194.167C1327.81 191.388 1336.62 189.945 1345.5 189.892C1364.18 189.892 1379.62 193.692 1391.81 201.292C1404 208.892 1413.19 220.45 1419.36 235.967C1425.54 251.484 1428.62 270.8 1428.62 293.917V443.542H1379.23V296.767C1379.23 282.517 1377.4 270.879 1373.76 261.854C1370.12 252.829 1364.66 246.1 1357.38 241.667C1350.09 237.234 1340.75 235.017 1329.35 235.017C1320.83 234.954 1312.37 236.484 1304.41 239.529C1296.93 242.367 1290.07 246.644 1284.23 252.117C1278.58 257.419 1274.06 263.799 1270.93 270.879C1267.7 278.293 1266.08 286.306 1266.18 294.391V443.542H1216.78V295.817C1216.78 282.834 1214.88 271.83 1211.08 262.805C1207.28 253.78 1201.73 246.893 1194.45 242.142C1187.17 237.392 1178.3 235.017 1167.85 235.017C1159.4 234.939 1151.02 236.47 1143.15 239.529C1135.8 242.384 1129.03 246.571 1123.2 251.879C1117.53 257.064 1113 263.373 1109.9 270.404C1106.7 277.661 1105.09 285.513 1105.15 293.441V443.542H1055.75ZM1494.17 548.042V194.167H1543.57V251.167L1535.97 246.892C1537.87 237.392 1543.26 228.288 1552.12 219.58C1561.55 210.501 1572.58 203.252 1584.66 198.205C1597.17 192.73 1610.67 189.9 1624.32 189.893C1646.81 189.893 1666.76 195.435 1684.17 206.518C1701.59 217.601 1715.36 232.801 1725.5 252.118C1735.63 271.435 1740.7 293.601 1740.7 318.618C1740.7 343.318 1735.71 365.406 1725.73 384.881C1715.76 404.356 1702.06 419.714 1684.65 430.955C1667.23 442.196 1647.6 447.817 1625.75 447.817C1611.2 447.822 1596.81 444.831 1583.47 439.03C1570.64 433.683 1558.89 426.036 1548.8 416.467C1539.3 407.284 1533.44 397.784 1531.22 387.967L1543.57 381.317V548.042H1494.17ZM1617.67 402.692C1632.24 402.692 1645.22 399.05 1656.62 391.767C1668.14 384.361 1677.48 374.035 1683.7 361.842C1690.35 349.175 1693.67 334.767 1693.67 318.617C1693.67 302.467 1690.43 288.138 1683.94 275.629C1677.8 263.515 1668.53 253.264 1657.1 245.942C1645.7 238.659 1632.56 235.017 1617.67 235.017C1602.79 235.017 1589.65 238.58 1578.25 245.705C1566.71 252.979 1557.36 263.237 1551.17 275.393C1544.52 288.06 1541.2 302.468 1541.2 318.618C1541.2 334.768 1544.52 349.176 1551.17 361.842C1557.39 374.035 1566.74 384.361 1578.25 391.767C1589.65 399.05 1602.79 402.692 1617.67 402.692ZM1794.85 443.542V92.042H1843.77V443.542H1794.85ZM1921.2 443.542V194.167H1970.12V443.542H1921.2ZM1944.95 139.067C1934.5 139.067 1926.42 136.375 1920.72 130.992C1915.02 125.609 1912.17 118.009 1912.17 108.192C1912.17 99.0087 1915.1 91.567 1920.96 85.867C1926.82 80.167 1934.81 77.317 1944.95 77.317C1955.4 77.317 1963.47 80.0087 1969.17 85.392C1974.87 90.7754 1977.72 98.3753 1977.72 108.192C1977.72 117.375 1974.79 124.817 1968.94 130.517C1963.08 136.217 1955.08 139.067 1944.95 139.067ZM2076.05 443.542V130.517H2124.97V443.542H2076.05ZM2024.27 241.667V194.167H2182.92V241.667H2024.27ZM2314.97 448.292C2297.24 448.292 2281.8 444.175 2268.66 435.942C2255.52 427.709 2245.39 416.15 2238.26 401.267C2231.14 386.384 2227.58 368.65 2227.58 348.067V194.167H2276.5V334.767C2276.5 349.334 2278.79 361.921 2283.39 372.53C2287.98 383.139 2294.63 391.293 2303.34 396.992C2312.04 402.692 2322.57 405.542 2334.92 405.542C2343.53 405.648 2352.07 404.116 2360.1 401.029C2367.44 398.186 2374.14 393.907 2379.81 388.442C2385.45 382.912 2389.9 376.284 2392.88 368.967C2396.09 361.132 2397.7 352.735 2397.62 344.267V194.167H2446.55V443.542H2397.62V391.292L2406.18 385.592C2402.25 397.518 2395.67 408.399 2386.94 417.417C2377.84 426.971 2366.94 434.638 2354.88 439.98C2342.32 445.565 2328.71 448.399 2314.97 448.292ZM2618.97 448.292C2596.17 448.292 2575.83 442.671 2557.94 431.429C2540.05 420.187 2525.88 404.829 2515.43 385.354C2504.97 365.879 2499.75 343.634 2499.75 318.617C2499.75 293.6 2504.9 271.355 2515.19 251.88C2525.48 232.405 2539.49 217.046 2557.22 205.805C2574.96 194.564 2595.07 188.943 2617.55 188.942C2629.75 188.918 2641.87 190.924 2653.41 194.88C2664.55 198.622 2675.05 204.07 2684.52 211.03C2693.71 217.839 2700.91 225.28 2706.14 233.355C2711.36 241.43 2713.97 249.584 2713.97 257.817L2699.72 258.767V92.042H2748.65V443.542H2699.72V384.167H2709.22C2709.22 391.767 2706.69 399.288 2701.62 406.73C2696.07 414.674 2689.25 421.654 2681.44 427.392C2672.63 433.943 2662.86 439.072 2652.46 442.592C2641.7 446.364 2630.38 448.291 2618.97 448.292ZM2625.62 406.017C2640.51 406.017 2653.65 402.217 2665.05 394.617C2676.61 386.829 2685.88 376.086 2691.89 363.504C2698.38 350.363 2701.62 335.4 2701.62 318.617C2701.62 301.834 2698.38 286.871 2691.89 273.73C2685.88 261.148 2676.61 250.405 2665.05 242.617C2653.65 235.017 2640.51 231.217 2625.62 231.217C2610.74 231.217 2597.6 235.017 2586.2 242.617C2574.64 250.405 2565.37 261.148 2559.36 273.73C2552.87 286.871 2549.62 301.834 2549.62 318.617C2549.62 335.4 2552.87 350.363 2559.36 363.504C2565.37 376.086 2574.64 386.829 2586.2 394.617C2597.6 402.217 2610.74 406.017 2625.62 406.017ZM2932.47 448.292C2906.82 448.292 2884.1 442.83 2864.31 431.905C2845.01 421.449 2828.91 405.93 2817.76 387.017C2806.52 368.017 2800.9 346.167 2800.9 321.467C2800.9 301.834 2804.07 283.942 2810.4 267.792C2816.38 252.203 2825.33 237.926 2836.76 225.754C2848.11 213.806 2861.87 204.414 2877.14 198.204C2893.35 191.609 2910.7 188.299 2928.2 188.466C2943.73 188.337 2959.1 191.494 2973.32 197.729C2986.99 203.72 2999.34 212.356 3009.66 223.141C3020.1 234.138 3028.18 247.149 3033.41 261.378C3038.95 276.103 3041.57 292.174 3041.25 309.591L3040.77 330.491H2837L2826.07 291.542H2998.5L2991.37 299.617V288.217C2990.54 278.09 2986.93 268.39 2980.92 260.192C2974.96 252.001 2967.15 245.33 2958.12 240.717C2948.87 235.951 2938.6 233.506 2928.2 233.592C2911.1 233.592 2896.69 236.838 2884.97 243.33C2873.31 249.767 2863.99 259.748 2858.37 271.83C2852.36 284.338 2849.35 299.775 2849.35 318.142C2849.35 335.559 2852.99 350.679 2860.27 363.504C2867.43 376.211 2878.17 386.535 2891.15 393.192C2904.45 400.159 2919.81 403.642 2937.22 403.642C2948.99 403.748 2960.67 401.654 2971.66 397.467C2982.27 393.35 2993.75 385.909 3006.1 375.142L3030.8 409.817C3022.61 417.844 3013.24 424.572 3003.01 429.767C2991.97 435.511 2980.35 440.05 2968.34 443.304C2956.66 446.558 2944.6 448.236 2932.47 448.292Z" fill="#4EE59A"/>
</g>
<path d="M720.67 754V599.818H813.119V616.381H739.341V668.477H806.193V685.04H739.341V754H720.67ZM881.176 756.409C870.737 756.409 861.577 753.925 853.697 748.956C845.868 743.987 839.745 737.036 835.328 728.102C830.962 719.169 828.778 708.729 828.778 696.784C828.778 684.739 830.962 674.224 835.328 665.24C839.745 656.256 845.868 649.28 853.697 644.311C861.577 639.342 870.737 636.858 881.176 636.858C891.616 636.858 900.75 639.342 908.58 644.311C916.459 649.28 922.582 656.256 926.949 665.24C931.366 674.224 933.574 684.739 933.574 696.784C933.574 708.729 931.366 719.169 926.949 728.102C922.582 737.036 916.459 743.987 908.58 748.956C900.75 753.925 891.616 756.409 881.176 756.409ZM881.176 740.449C889.106 740.449 895.631 738.416 900.75 734.351C905.869 730.286 909.659 724.94 912.118 718.315C914.577 711.69 915.807 704.513 915.807 696.784C915.807 689.055 914.577 681.853 912.118 675.178C909.659 668.502 905.869 663.107 900.75 658.991C895.631 654.876 889.106 652.818 881.176 652.818C873.246 652.818 866.722 654.876 861.602 658.991C856.483 663.107 852.694 668.502 850.234 675.178C847.775 681.853 846.545 689.055 846.545 696.784C846.545 704.513 847.775 711.69 850.234 718.315C852.694 724.94 856.483 730.286 861.602 734.351C866.722 738.416 873.246 740.449 881.176 740.449ZM1033.57 706.722V638.364H1051.34V754H1033.57V734.426H1032.37C1029.66 740.298 1025.44 745.292 1019.72 749.408C1014 753.473 1006.77 755.506 998.036 755.506C990.809 755.506 984.384 753.925 978.763 750.763C973.142 747.551 968.725 742.732 965.513 736.308C962.301 729.834 960.695 721.678 960.695 711.841V638.364H978.462V710.636C978.462 719.068 980.821 725.794 985.539 730.812C990.307 735.831 996.38 738.341 1003.76 738.341C1008.17 738.341 1012.67 737.212 1017.23 734.953C1021.85 732.695 1025.72 729.232 1028.83 724.564C1031.99 719.896 1033.57 713.949 1033.57 706.722ZM1130.86 756.409C1120.01 756.409 1110.68 753.849 1102.85 748.73C1095.02 743.611 1089 736.559 1084.78 727.575C1080.57 718.591 1078.46 708.328 1078.46 696.784C1078.46 685.04 1080.62 674.676 1084.93 665.692C1089.3 656.658 1095.37 649.606 1103.15 644.537C1110.98 639.418 1120.12 636.858 1130.55 636.858C1138.69 636.858 1146.01 638.364 1152.54 641.375C1159.06 644.386 1164.41 648.602 1168.57 654.023C1172.74 659.443 1175.32 665.767 1176.33 672.994H1158.56C1157.21 667.724 1154.19 663.057 1149.53 658.991C1144.91 654.876 1138.69 652.818 1130.86 652.818C1123.93 652.818 1117.86 654.625 1112.64 658.239C1107.47 661.802 1103.43 666.846 1100.52 673.371C1097.66 679.845 1096.23 687.449 1096.23 696.182C1096.23 705.116 1097.63 712.895 1100.44 719.52C1103.3 726.145 1107.32 731.289 1112.49 734.953C1117.71 738.617 1123.83 740.449 1130.86 740.449C1135.47 740.449 1139.66 739.646 1143.43 738.04C1147.19 736.434 1150.38 734.125 1152.99 731.114C1155.6 728.102 1157.46 724.489 1158.56 720.273H1176.33C1175.32 727.098 1172.84 733.247 1168.87 738.717C1164.96 744.138 1159.76 748.454 1153.29 751.666C1146.87 754.828 1139.39 756.409 1130.86 756.409ZM1249.28 756.409C1238.84 756.409 1229.68 753.925 1221.8 748.956C1213.97 743.987 1207.85 737.036 1203.43 728.102C1199.06 719.169 1196.88 708.729 1196.88 696.784C1196.88 684.739 1199.06 674.224 1203.43 665.24C1207.85 656.256 1213.97 649.28 1221.8 644.311C1229.68 639.342 1238.84 636.858 1249.28 636.858C1259.72 636.858 1268.85 639.342 1276.68 644.311C1284.56 649.28 1290.68 656.256 1295.05 665.24C1299.47 674.224 1301.68 684.739 1301.68 696.784C1301.68 708.729 1299.47 719.169 1295.05 728.102C1290.68 737.036 1284.56 743.987 1276.68 748.956C1268.85 753.925 1259.72 756.409 1249.28 756.409ZM1249.28 740.449C1257.21 740.449 1263.73 738.416 1268.85 734.351C1273.97 730.286 1277.76 724.94 1280.22 718.315C1282.68 711.69 1283.91 704.513 1283.91 696.784C1283.91 689.055 1282.68 681.853 1280.22 675.178C1277.76 668.502 1273.97 663.107 1268.85 658.991C1263.73 654.876 1257.21 652.818 1249.28 652.818C1241.35 652.818 1234.82 654.876 1229.7 658.991C1224.58 663.107 1220.8 668.502 1218.34 675.178C1215.88 681.853 1214.65 689.055 1214.65 696.784C1214.65 704.513 1215.88 711.69 1218.34 718.315C1220.8 724.94 1224.58 730.286 1229.7 734.351C1234.82 738.416 1241.35 740.449 1249.28 740.449ZM1375.77 756.409C1364.93 756.409 1355.6 753.849 1347.77 748.73C1339.94 743.611 1333.92 736.559 1329.7 727.575C1325.48 718.591 1323.38 708.328 1323.38 696.784C1323.38 685.04 1325.53 674.676 1329.85 665.692C1334.22 656.658 1340.29 649.606 1348.07 644.537C1355.9 639.418 1365.03 636.858 1375.47 636.858C1383.6 636.858 1390.93 638.364 1397.46 641.375C1403.98 644.386 1409.33 648.602 1413.49 654.023C1417.66 659.443 1420.24 665.767 1421.25 672.994H1403.48C1402.12 667.724 1399.11 663.057 1394.44 658.991C1389.83 654.876 1383.6 652.818 1375.77 652.818C1368.85 652.818 1362.77 654.625 1357.56 658.239C1352.39 661.802 1348.35 666.846 1345.43 673.371C1342.57 679.845 1341.14 687.449 1341.14 696.182C1341.14 705.116 1342.55 712.895 1345.36 719.52C1348.22 726.145 1352.23 731.289 1357.4 734.953C1362.62 738.617 1368.75 740.449 1375.77 740.449C1380.39 740.449 1384.58 739.646 1388.35 738.04C1392.11 736.434 1395.3 734.125 1397.91 731.114C1400.52 728.102 1402.37 724.489 1403.48 720.273H1421.25C1420.24 727.098 1417.76 733.247 1413.79 738.717C1409.88 744.138 1404.68 748.454 1398.21 751.666C1391.78 754.828 1384.31 756.409 1375.77 756.409ZM1494.2 756.409C1483.76 756.409 1474.6 753.925 1466.72 748.956C1458.89 743.987 1452.76 737.036 1448.35 728.102C1443.98 719.169 1441.8 708.729 1441.8 696.784C1441.8 684.739 1443.98 674.224 1448.35 665.24C1452.76 656.256 1458.89 649.28 1466.72 644.311C1474.6 639.342 1483.76 636.858 1494.2 636.858C1504.64 636.858 1513.77 639.342 1521.6 644.311C1529.48 649.28 1535.6 656.256 1539.97 665.24C1544.39 674.224 1546.59 684.739 1546.59 696.784C1546.59 708.729 1544.39 719.169 1539.97 728.102C1535.6 737.036 1529.48 743.987 1521.6 748.956C1513.77 753.925 1504.64 756.409 1494.2 756.409ZM1494.2 740.449C1502.13 740.449 1508.65 738.416 1513.77 734.351C1518.89 730.286 1522.68 724.94 1525.14 718.315C1527.6 711.69 1528.83 704.513 1528.83 696.784C1528.83 689.055 1527.6 681.853 1525.14 675.178C1522.68 668.502 1518.89 663.107 1513.77 658.991C1508.65 654.876 1502.13 652.818 1494.2 652.818C1486.27 652.818 1479.74 654.876 1474.62 658.991C1469.5 663.107 1465.71 668.502 1463.25 675.178C1460.79 681.853 1459.56 689.055 1459.56 696.784C1459.56 704.513 1460.79 711.69 1463.25 718.315C1465.71 724.94 1469.5 730.286 1474.62 734.351C1479.74 738.416 1486.27 740.449 1494.2 740.449ZM1683.63 638.364V653.42H1623.7V638.364H1683.63ZM1641.17 610.659H1658.94V720.875C1658.94 725.894 1659.66 729.658 1661.12 732.168C1662.63 734.627 1664.53 736.283 1666.84 737.136C1669.2 737.939 1671.68 738.341 1674.29 738.341C1676.25 738.341 1677.86 738.241 1679.11 738.04C1680.37 737.789 1681.37 737.588 1682.12 737.438L1685.74 753.398C1684.53 753.849 1682.85 754.301 1680.69 754.753C1678.54 755.255 1675.8 755.506 1672.49 755.506C1667.47 755.506 1662.55 754.427 1657.73 752.268C1652.96 750.11 1649 746.823 1645.84 742.406C1642.72 737.99 1641.17 732.419 1641.17 725.693V610.659ZM1757.6 756.409C1746.45 756.409 1736.84 753.95 1728.76 749.031C1720.73 744.062 1714.53 737.136 1710.17 728.253C1705.85 719.319 1703.69 708.93 1703.69 697.085C1703.69 685.241 1705.85 674.801 1710.17 665.767C1714.53 656.683 1720.61 649.606 1728.39 644.537C1736.22 639.418 1745.35 636.858 1755.79 636.858C1761.81 636.858 1767.76 637.862 1773.63 639.869C1779.5 641.877 1784.85 645.139 1789.67 649.656C1794.49 654.123 1798.32 660.045 1801.19 667.423C1804.05 674.801 1805.48 683.885 1805.48 694.676V702.205H1716.34V686.847H1787.41C1787.41 680.322 1786.1 674.5 1783.49 669.381C1780.93 664.261 1777.27 660.221 1772.5 657.26C1767.78 654.299 1762.21 652.818 1755.79 652.818C1748.71 652.818 1742.59 654.575 1737.42 658.088C1732.3 661.551 1728.36 666.068 1725.6 671.639C1722.84 677.21 1721.46 683.183 1721.46 689.557V699.795C1721.46 708.528 1722.97 715.931 1725.98 722.004C1729.04 728.027 1733.28 732.619 1738.7 735.781C1744.12 738.893 1750.42 740.449 1757.6 740.449C1762.26 740.449 1766.48 739.796 1770.24 738.491C1774.06 737.136 1777.35 735.129 1780.11 732.469C1782.87 729.759 1785 726.396 1786.5 722.381L1803.67 727.199C1801.86 733.021 1798.83 738.14 1794.56 742.557C1790.29 746.923 1785.02 750.336 1778.75 752.795C1772.48 755.205 1765.43 756.409 1757.6 756.409ZM1914.41 664.261L1898.45 668.778C1897.45 666.118 1895.97 663.534 1894.01 661.024C1892.1 658.464 1889.49 656.357 1886.18 654.7C1882.87 653.044 1878.63 652.216 1873.46 652.216C1866.38 652.216 1860.48 653.847 1855.77 657.109C1851.1 660.321 1848.76 664.412 1848.76 669.381C1848.76 673.797 1850.37 677.286 1853.58 679.845C1856.8 682.405 1861.81 684.538 1868.64 686.244L1885.8 690.46C1896.14 692.97 1903.85 696.809 1908.92 701.979C1913.99 707.098 1916.52 713.698 1916.52 721.778C1916.52 728.403 1914.61 734.326 1910.8 739.545C1907.03 744.765 1901.76 748.881 1894.99 751.892C1888.21 754.903 1880.33 756.409 1871.35 756.409C1859.56 756.409 1849.79 753.849 1842.06 748.73C1834.34 743.611 1829.44 736.133 1827.38 726.295L1844.25 722.08C1845.85 728.303 1848.89 732.971 1853.36 736.082C1857.87 739.194 1863.77 740.75 1871.05 740.75C1879.33 740.75 1885.91 738.993 1890.77 735.48C1895.69 731.917 1898.15 727.651 1898.15 722.682C1898.15 718.667 1896.75 715.304 1893.94 712.594C1891.12 709.833 1886.81 707.776 1880.99 706.42L1861.71 701.903C1851.12 699.394 1843.34 695.504 1838.38 690.234C1833.46 684.914 1831 678.264 1831 670.284C1831 663.759 1832.83 657.988 1836.49 652.969C1840.21 647.95 1845.25 644.01 1851.63 641.149C1858.05 638.288 1865.33 636.858 1873.46 636.858C1884.9 636.858 1893.89 639.367 1900.41 644.386C1906.98 649.405 1911.65 656.03 1914.41 664.261ZM1993.56 638.364V653.42H1933.63V638.364H1993.56ZM1951.09 610.659H1968.86V720.875C1968.86 725.894 1969.59 729.658 1971.05 732.168C1972.55 734.627 1974.46 736.283 1976.77 737.136C1979.13 737.939 1981.61 738.341 1984.22 738.341C1986.18 738.341 1987.78 738.241 1989.04 738.04C1990.29 737.789 1991.3 737.588 1992.05 737.438L1995.66 753.398C1994.46 753.849 1992.78 754.301 1990.62 754.753C1988.46 755.255 1985.73 755.506 1982.41 755.506C1977.39 755.506 1972.48 754.427 1967.66 752.268C1962.89 750.11 1958.92 746.823 1955.76 742.406C1952.65 737.99 1951.09 732.419 1951.09 725.693V610.659ZM2038.05 684.438V754H2020.28V638.364H2037.45V656.432H2038.95C2041.66 650.56 2045.78 645.842 2051.3 642.278C2056.82 638.665 2063.95 636.858 2072.68 636.858C2080.51 636.858 2087.36 638.464 2093.23 641.676C2099.1 644.838 2103.67 649.656 2106.93 656.131C2110.2 662.555 2111.83 670.686 2111.83 680.523V754H2094.06V681.727C2094.06 672.643 2091.7 665.566 2086.98 660.497C2082.26 655.378 2075.79 652.818 2067.56 652.818C2061.89 652.818 2056.82 654.048 2052.35 656.507C2047.94 658.966 2044.45 662.555 2041.89 667.273C2039.33 671.991 2038.05 677.712 2038.05 684.438ZM2192.78 756.409C2181.63 756.409 2172.02 753.95 2163.94 749.031C2155.91 744.062 2149.71 737.136 2145.35 728.253C2141.03 719.319 2138.87 708.93 2138.87 697.085C2138.87 685.241 2141.03 674.801 2145.35 665.767C2149.71 656.683 2155.79 649.606 2163.57 644.537C2171.39 639.418 2180.53 636.858 2190.97 636.858C2196.99 636.858 2202.94 637.862 2208.81 639.869C2214.68 641.877 2220.03 645.139 2224.85 649.656C2229.66 654.123 2233.5 660.045 2236.37 667.423C2239.23 674.801 2240.66 683.885 2240.66 694.676V702.205H2151.52V686.847H2222.59C2222.59 680.322 2221.28 674.5 2218.67 669.381C2216.11 664.261 2212.45 660.221 2207.68 657.26C2202.96 654.299 2197.39 652.818 2190.97 652.818C2183.89 652.818 2177.77 654.575 2172.6 658.088C2167.48 661.551 2163.54 666.068 2160.78 671.639C2158.02 677.21 2156.64 683.183 2156.64 689.557V699.795C2156.64 708.528 2158.14 715.931 2161.16 722.004C2164.22 728.027 2168.46 732.619 2173.88 735.781C2179.3 738.893 2185.6 740.449 2192.78 740.449C2197.44 740.449 2201.66 739.796 2205.42 738.491C2209.24 737.136 2212.53 735.129 2215.29 732.469C2218.05 729.759 2220.18 726.396 2221.68 722.381L2238.85 727.199C2237.04 733.021 2234.01 738.14 2229.74 742.557C2225.47 746.923 2220.2 750.336 2213.93 752.795C2207.66 755.205 2200.61 756.409 2192.78 756.409ZM2317.97 638.364V653.42H2258.05V638.364H2317.97ZM2275.51 610.659H2293.28V720.875C2293.28 725.894 2294.01 729.658 2295.46 732.168C2296.97 734.627 2298.88 736.283 2301.18 737.136C2303.54 737.939 2306.03 738.341 2308.64 738.341C2310.6 738.341 2312.2 738.241 2313.46 738.04C2314.71 737.789 2315.71 737.588 2316.47 737.438L2320.08 753.398C2318.88 753.849 2317.2 754.301 2315.04 754.753C2312.88 755.255 2310.14 755.506 2306.83 755.506C2301.81 755.506 2296.89 754.427 2292.08 752.268C2287.31 750.11 2283.34 746.823 2280.18 742.406C2277.07 737.99 2275.51 732.419 2275.51 725.693V610.659Z" fill="#4EE59A"/>
<defs>
<clipPath id="clip0_1_9">
<rect width="3041.27" height="548.042" fill="white"/>
</clipPath>
</defs>
</svg>
